<?xml version="1.0" standalone="no"?>
<!DOCTYPE svg PUBLIC "-//W3C//DTD SVG 20010904//EN"
 "http://www.w3.org/TR/2001/REC-SVG-20010904/DTD/svg10.dtd">
<svg version="1.0" xmlns="http://www.w3.org/2000/svg"
 width="256.000000pt" height="256.000000pt" viewBox="0 0 256.000000 256.000000"
 preserveAspectRatio="xMidYMid meet">
<metadata>
Created by potrace 1.14, written by Peter Selinger 2001-2017
</metadata>
<g transform="translate(0.000000,256.000000) scale(0.100000,-0.100000)"
fill="#000000" stroke="none">
<path d="M380 2543 c-88 -30 -163 -103 -197 -191 -17 -44 -18 -109 -18 -1122
l1 -1075 21 -40 c24 -46 53 -73 103 -97 32 -16 100 -17 809 -18 525 0 788 4
815 11 85 23 167 103 196 194 10 31 13 208 13 830 0 434 -3 808 -7 830 -17 89
-76 162 -163 202 -45 21 -72 26 -157 28 l-102 2 1 -391 c0 -215 -3 -403 -8
-419 -9 -27 -44 -45 -77 -38 -7 1 -60 38 -115 81 l-101 78 -111 -82 c-60 -46
-118 -83 -127 -83 -9 0 -28 11 -41 23 l-25 23 0 404 0 403 -323 0 c-303 0
-325 1 -356 19 -55 32 -76 69 -75 131 0 61 21 97 73 127 29 18 69 19 727 19
l695 0 30 25 c35 30 39 75 9 113 l-19 25 -713 2 c-624 2 -719 0 -758 -14z"/>
<path d="M2212 1911 c-5 -3 -8 -109 -8 -234 l0 -229 71 4 c114 5 123 22 120
233 -3 194 0 180 -35 205 -29 21 -127 35 -148 21z"/>
<path d="M2204 1124 l0 -234 63 0 c55 0 67 3 95 29 l33 29 0 176 0 176 -27 26
c-23 23 -36 27 -95 29 l-68 3 -1 -234z"/>
<path d="M2209 797 c-1 -1 -3 -107 -3 -235 l-2 -234 69 5 c58 5 74 10 96 31
26 26 26 28 27 189 1 89 -3 174 -8 189 -12 34 -59 56 -125 57 -29 0 -54 0 -54
-2z"/>
</g>
</svg>
